<?xml version="1.0" encoding="UTF-8"?>
<svg xmlns="http://www.w3.org/2000/svg" viewBox="0 0 64 64" width="64" height="64">
  <g>
    
    <!-- lid -->
    <rect x="16" y="10" width="32" height="6" rx="2" fill="#B5835A" />
    <rect x="27" y="6" width="10" height="5" rx="1.5" fill="#B5835A" />
    <!-- bin body -->
    <path d="M19 18 H45 L42 56 C42 58.2 40.2 60 38 60 H26 C23.8 60 22 58.2 22 56 Z"
          fill="none" stroke="#B5835A" stroke-width="2.5" stroke-linejoin="round" />
    <!-- vertical ribs -->
    <line x1="27" y1="24" x2="26" y2="54" stroke="#B5835A" stroke-width="1.5" opacity="0.6" />
    <line x1="32" y1="24" x2="32" y2="54" stroke="#B5835A" stroke-width="1.5" opacity="0.6" />
    <line x1="37" y1="24" x2="38" y2="54" stroke="#B5835A" stroke-width="1.5" opacity="0.6" />
    <!-- material glyph -->
    <g fill="#B5835A" stroke="#B5835A" stroke-width="1.4" stroke-linecap="round" stroke-linejoin="round">
      <path d="M24 34 C24 22 44 20 44 20 C44 20 42 40 30 40 C26 40 24 38 24 34 Z" /><path d="M26 36 L42 22" stroke-width="1.6" fill="none" />
    </g>
  </g>
</svg>
